HIERARCHY
ROOT Hips
{
 OFFSET 0.000000 0.000000 0.000000
 CHANNELS 6 Xposition Yposition Zposition Yrotation Xrotation Zrotation
 JOINT Chest
 {
  OFFSET 0.000000 9.588913 -0.003946
  CHANNELS 3 Yrotation Xrotation Zrotation
  JOINT Chest2
  {
   OFFSET 0.000000 9.541882 0.008053
   CHANNELS 3 Yrotation Xrotation Zrotation
   JOINT Chest3
   {
    OFFSET 0.000000 9.501360 0.000000
    CHANNELS 3 Yrotation Xrotation Zrotation
    JOINT Chest4
    {
     OFFSET 0.000000 9.491660 0.000000
     CHANNELS 3 Yrotation Xrotation Zrotation
     JOINT Neck
     {
      OFFSET 0.000000 14.331917 0.000000
      CHANNELS 3 Yrotation Xrotation Zrotation
      JOINT Head
      {
       OFFSET 0.000000 8.884799 0.017034
       CHANNELS 3 Yrotation Xrotation Zrotation
       End Site
       {
        OFFSET 0.000000 16.896195 0.008993
       }
      }
     }
     JOINT RightCollar
     {
      OFFSET -2.923010 9.499495 0.000000
      CHANNELS 3 Yrotation Xrotation Zrotation
      JOINT RightShoulder
      {
       OFFSET -13.795216 0.000000 0.000000
       CHANNELS 3 Yrotation Xrotation Zrotation
       JOINT RightElbow
       {
        OFFSET -30.272209 0.000000 0.000000
        CHANNELS 3 Yrotation Xrotation Zrotation
        JOINT RightWrist
        {
         OFFSET -24.478199 0.000000 0.000000
         CHANNELS 3 Yrotation Xrotation Zrotation
         End Site
         {
          OFFSET -18.090752 0.000000 0.000000
         }
        }
       }
      }
     }
     JOINT LeftCollar
     {
      OFFSET 2.923010 9.499495 0.000000
      CHANNELS 3 Yrotation Xrotation Zrotation
      JOINT LeftShoulder
      {
       OFFSET 13.795216 0.000000 0.000000
       CHANNELS 3 Yrotation Xrotation Zrotation
       JOINT LeftElbow
       {
        OFFSET 30.272209 0.000000 0.000000
        CHANNELS 3 Yrotation Xrotation Zrotation
        JOINT LeftWrist
        {
         OFFSET 24.478199 0.000000 0.000000
         CHANNELS 3 Yrotation Xrotation Zrotation
         End Site
         {
          OFFSET 18.090752 0.000000 0.000000
         }
        }
       }
      }
     }
    }
   }
  }
 }
 JOINT RightHip
 {
  OFFSET -7.826875 0.019532 0.001973
  CHANNELS 3 Yrotation Xrotation Zrotation
  JOINT RightKnee
  {
   OFFSET 0.000000 -40.546152 -0.001885
   CHANNELS 3 Yrotation Xrotation Zrotation
   JOINT RightAnkle
   {
    OFFSET 0.000000 -39.417092 -0.003189
    CHANNELS 3 Yrotation Xrotation Zrotation
    JOINT RightToe
    {
     OFFSET 0.000000 -7.579396 17.243563
     CHANNELS 3 Yrotation Xrotation Zrotation
     End Site
     {
      OFFSET 0.000000 -1.500329 6.694466
     }
    }
   }
  }
 }
 JOINT LeftHip
 {
  OFFSET 7.826875 0.019532 0.001973
  CHANNELS 3 Yrotation Xrotation Zrotation
  JOINT LeftKnee
  {
   OFFSET 0.000000 -40.546152 -0.001885
   CHANNELS 3 Yrotation Xrotation Zrotation
   JOINT LeftAnkle
   {
    OFFSET 0.000000 -39.417092 -0.003189
    CHANNELS 3 Yrotation Xrotation Zrotation
    JOINT LeftToe
    {
     OFFSET 0.000000 -7.579396 17.243563
     CHANNELS 3 Yrotation Xrotation Zrotation
     End Site
     {
      OFFSET 0.000000 -1.500329 6.694466
     }
    }
   }
  }
 }
}
MOTION
Frames: 14
Frame Time: 0.008333
17.555439 85.303407 -9.091820 70.363336 -16.547902 4.227867 1.550425 7.287648 2.955657 0.885975 3.938822 0.618041 1.114783 4.921977 0.782554 0.885976 3.938821 0.618042 33.339297 21.027499 -3.608694 45.213441 3.085621 -12.371508 -5.121078 -0.305191 -4.471115 4.239779 -4.234580 85.512373 63.330978 -31.863864 39.766625 20.443523 -25.466834 -0.169611 -9.584169 1.499292 1.447604 -10.475565 -17.245636 -91.932301 -30.384645 7.622594 -32.903843 -17.891928 -7.240432 6.343143 -14.189559 5.049474 -13.661508 24.793493 25.574429 6.080897 9.389941 -20.282150 -3.169024 -0.179858 2.051972 -0.004197 -0.004319 -5.080795 13.463509 -0.226561 8.497587 0.266494 -7.110902 24.389699 -15.831015 -1.116481 -7.247139 -2.248052
17.173222 85.359448 -9.017858 70.690226 -16.481300 4.262222 1.556594 7.318616 3.018489 0.884954 3.934397 0.611430 1.113427 4.916465 0.774262 0.884955 3.934397 0.611430 33.239607 21.033508 -3.651010 45.060706 3.066948 -12.404652 -5.087312 -0.354321 -4.506780 4.392547 -4.266764 85.333465 63.271766 -31.837167 39.756718 20.125197 -25.355643 0.032496 -9.577704 1.518155 1.446536 -10.414055 -17.244487 -91.972582 -30.619385 7.855730 -32.639784 -18.546400 -7.482352 7.014186 -14.328911 4.887412 -13.528140 24.849472 25.440818 6.117052 9.110213 -20.069002 -3.289724 -0.149323 2.085892 0.041928 -0.215216 -5.350050 13.369864 0.181128 8.034780 0.220096 -7.270566 25.735155 -15.648919 -1.132560 -7.712104 -2.452666
16.795652 85.412656 -8.945770 70.990136 -16.395667 4.308225 1.580931 7.332680 3.078730 0.885454 3.931422 0.604121 1.113966 4.912764 0.765119 0.885454 3.931422 0.604122 33.140205 21.033515 -3.696018 44.910152 3.040934 -12.442088 -5.045956 -0.396866 -4.549343 4.521610 -4.310520 85.140734 63.199064 -31.807676 39.780131 19.897293 -25.266941 0.208762 -9.557800 1.521431 1.452973 -10.389927 -17.244624 -92.019264 -30.798144 8.007312 -32.370491 -19.035095 -7.694585 7.519816 -14.430755 4.697712 -13.400224 24.841782 25.326605 6.144556 8.882842 -19.855674 -3.418394 -0.118548 2.113474 0.082946 -0.352070 -5.645437 13.251682 0.616213 7.616313 0.172776 -7.342292 26.945994 -15.454438 -1.131749 -8.075564 -2.577405
16.427401 85.466778 -8.876765 71.277567 -16.303162 4.386148 1.605781 7.339085 3.110685 0.886511 3.929546 0.596919 1.115208 4.910434 0.756116 0.886512 3.929545 0.596919 33.043487 21.027397 -3.742542 44.765370 3.008020 -12.482801 -4.992826 -0.435788 -4.602563 4.606965 -4.360260 84.938462 63.092613 -31.779716 39.863774 19.789821 -25.206156 0.327598 -9.525263 1.515292 1.463502 -10.388009 -17.241164 -92.073781 -30.922299 8.058278 -32.110979 -19.313538 -7.844713 7.804832 -14.532563 4.485001 -13.310158 24.756081 25.233105 6.151440 8.733036 -19.641504 -3.545418 -0.077357 2.132226 0.114252 -0.440065 -5.958984 13.083042 1.079948 7.269250 0.120852 -7.293697 27.966949 -15.225396 -1.101498 -8.279235 -2.632238
16.071188 85.525759 -8.810919 71.560900 -16.204486 4.509948 1.623286 7.333752 3.095575 0.888196 3.929050 0.590305 1.117243 4.909828 0.747862 0.888197 3.929050 0.590305 32.948752 21.015122 -3.789116 44.624619 2.967536 -12.524713 -4.931141 -0.477207 -4.663285 4.661814 -4.398371 84.731018 62.968156 -31.767134 39.989486 19.784906 -25.176852 0.381223 -9.485175 1.502338 1.474373 -10.384713 -17.229610 -92.135408 -31.027078 8.050683 -31.876617 -19.399257 -7.896300 7.892824 -14.653032 4.250524 -13.275052 24.602085 25.150614 6.131922 8.657612 -19.422659 -3.659741 -0.018804 2.142090 0.134551 -0.516623 -6.285622 12.844559 1.573533 7.015370 0.069157 -7.075070 28.736657 -14.934120 -1.030972 -8.223498 -2.638245
15.726950 85.593180 -8.747749 71.840834 -16.084992 4.687859 1.634515 7.301818 3.018653 0.890843 3.929487 0.584975 1.120497 4.910384 0.741224 0.890843 3.929487 0.584975 32.855953 20.996424 -3.834863 44.487490 2.918891 -12.566696 -4.866514 -0.529671 -4.721906 4.709866 -4.406161 84.521702 62.848570 -31.778534 40.126061 19.842674 -25.184835 0.380549 -9.445273 1.483408 1.481578 -10.358141 -17.211459 -92.197426 -31.152101 8.056684 -31.670642 -19.350930 -7.855426 7.845168 -14.782725 3.987771 -13.293688 24.400743 25.063835 6.083613 8.626999 -19.194499 -3.752102 0.055573 2.144930 0.147089 -0.612616 -6.634379 12.521501 2.100008 6.874285 0.031033 -6.635239 29.196722 -14.537979 -0.914263 -7.762335 -2.633037
15.395547 85.672894 -8.689590 72.122109 -15.934336 4.942828 1.634514 7.233787 2.852233 0.895462 3.929883 0.581401 1.126236 4.910880 0.736805 0.895462 3.929884 0.581402 32.764730 20.972987 -3.878815 44.352884 2.864005 -12.607175 -4.808327 -0.599205 -4.773686 4.766229 -4.373783 84.315291 62.742367 -31.813104 40.250941 19.939336 -25.225251 0.352169 -9.421678 1.461961 1.481135 -10.291177 -17.194456 -92.250725 -31.308280 8.132124 -31.494146 -19.255062 -7.781666 7.720401 -14.908644 3.689165 -13.382110 24.172570 24.959835 6.012203 8.591798 -18.948790 -3.819993 0.149828 2.136288 0.161411 -0.750750 -7.015234 12.082756 2.665567 6.883060 0.022756 -5.943950 29.244442 -14.008711 -0.737691 -6.692388 -2.505633
15.080036 85.768900 -8.630010 72.399485 -15.775977 5.249599 1.630585 7.148116 2.624272 0.903076 3.931247 0.579683 1.135743 4.912577 0.734741 0.903075 3.931249 0.579683 32.673374 20.947967 -3.921539 44.217911 2.806685 -12.646093 -4.764847 -0.686254 -4.818237 4.839311 -4.305154 84.116057 62.645923 -31.861827 40.349998 20.071070 -25.286332 0.327524 -9.421844 1.442030 1.470932 -10.191586 -17.192539 -92.286256 -31.467905 8.280682 -31.352127 -19.221736 -7.744108 7.589031 -15.016895 3.390165 -13.520862 23.927489 24.830329 5.926158 8.557742 -18.667122 -3.861396 0.228633 2.102119 0.167197 -0.923713 -7.394560 11.550300 3.281922 7.009311 0.065569 -5.023422 28.949990 -13.355494 -0.536460 -5.155039 -2.140601
14.783002 85.883837 -8.563325 72.669820 -15.635420 5.578046 1.623138 7.066880 2.365628 0.913416 3.934893 0.580000 1.148687 4.917117 0.735259 0.913415 3.934896 0.580000 32.582272 20.924525 -3.964827 44.083652 2.751825 -12.685475 -4.731998 -0.786919 -4.856869 4.929301 -4.212241 83.923586 62.551347 -31.916513 40.418782 20.233766 -25.356298 0.324904 -9.436610 1.423292 1.452497 -10.089240 -17.216397 -92.298901 -31.593270 8.455059 -31.249510 -19.328450 -7.782620 7.530215 -15.110381 3.122418 -13.687626 23.667001 24.676827 5.829113 8.538905 -18.331316 -3.880260 0.281411 2.024245 0.160552 -1.084029 -7.734570 10.957299 3.958139 7.218250 0.181468 -3.994413 28.328744 -12.660458 -0.340405 -3.503786 -1.676719
14.500249 86.016777 -8.483095 72.905495 -15.501860 5.879721 1.639409 6.980507 2.131957 0.926097 3.941332 0.581992 1.164580 4.925139 0.737904 0.926095 3.941334 0.581992 32.492873 20.905779 -4.008548 43.952240 2.704155 -12.725075 -4.704956 -0.896154 -4.889525 5.033539 -4.105777 83.731128 62.454164 -31.979574 40.463454 20.410931 -25.418070 0.334284 -9.457395 1.401030 1.430535 -10.003991 -17.263348 -92.287446 -31.651053 8.592279 -31.187769 -19.594535 -7.889664 7.582500 -15.168925 2.887331 -13.824747 23.395288 24.507116 5.717205 8.565503 -17.963465 -3.877980 0.289862 1.922519 0.135383 -1.133376 -8.031233 10.372553 4.667816 7.464638 0.371305 -2.998614 27.417286 -12.011921 -0.177779 -1.949222 -1.242102
14.234041 86.167482 -8.394653 73.113191 -15.390899 6.168414 1.664009 6.906267 1.908832 0.941604 3.950355 0.584770 1.184023 4.936386 0.741571 0.941602 3.950359 0.584769 32.405382 20.892312 -4.051673 43.823583 2.664272 -12.763528 -4.685705 -1.007899 -4.916370 5.150656 -3.996285 83.534704 62.351455 -32.055776 40.496258 20.572987 -25.462633 0.337058 -9.482862 1.371859 1.409857 -9.940709 -17.320253 -92.254434 -31.636421 8.662388 -31.155345 -19.991554 -8.044114 7.743118 -15.207346 2.690656 -13.950978 23.129053 24.324778 5.589836 8.620490 -17.548759 -3.858685 0.270948 1.779699 0.103155 -1.016938 -8.259912 9.787623 5.356654 7.731931 0.619678 -2.125076 26.205638 -11.482176 -0.040767 -0.491612 -0.812604
13.976767 86.331657 -8.300412 73.269414 -15.263278 6.426379 1.722812 6.813597 1.722097 0.959682 3.960218 0.587528 1.206684 4.948675 0.745244 0.959680 3.960221 0.587528 32.320330 20.883309 -4.094218 43.698615 2.631254 -12.801097 -4.672284 -1.115371 -4.942499 5.270211 -3.894546 83.336415 62.234781 -32.141843 40.532064 20.692715 -25.497908 0.333453 -9.510556 1.336233 1.392612 -9.906298 -17.372288 -92.207678 -31.581720 8.670468 -31.130283 -20.460734 -8.236954 7.993164 -15.195943 2.501154 -14.033744 22.889832 24.128516 5.452688 8.692773 -17.117090 -3.822353 0.220221 1.628005 0.064795 -0.706178 -8.446192 9.240003 5.972431 8.006734 0.912113 -1.389790 24.721388 -11.155576 0.078385 0.855771 -0.356083
13.736782 86.509147 -8.208012 73.403731 -15.173199 6.676767 1.773565 6.760851 1.543782 0.979595 3.968498 0.589599 1.231629 4.958987 0.748074 0.979594 3.968501 0.589598 32.241089 20.878967 -4.134846 43.582403 2.606264 -12.836794 -4.660073 -1.213817 -4.969699 5.375065 -3.807546 83.135574 62.086016 -32.227989 40.590212 20.745179 -25.528563 0.334288 -9.535146 1.299037 1.379947 -9.913320 -17.408657 -92.157385 -31.520923 8.617688 -31.086706 -20.939619 -8.449415 8.291726 -15.168894 2.359482 -14.116142 22.690549 23.916883 5.311114 8.744283 -16.626343 -3.767375 0.142664 1.425729 0.024497 -0.275686 -8.529570 8.713038 6.487403 8.269155 1.221709 -0.757518 23.093352 -11.104402 0.171741 2.007829 0.163123
13.508473 86.695149 -8.120702 73.505226 -15.091979 6.904002 1.830534 6.724595 1.389700 1.000954 3.973233 0.590612 1.258365 4.964866 0.749588 1.000954 3.973236 0.590612 32.170371 20.878379 -4.172638 43.479150 2.588832 -12.870178 -4.649345 -1.302704 -4.996210 5.448982 -3.739306 82.932104 61.881130 -32.309461 40.694319 20.707525 -25.553620 0.359728 -9.555700 1.265728 1.375892 -9.954186 -17.423013 -92.119941 -31.473553 8.505557 -31.006767 -21.362806 -8.647596 8.579498 -15.120399 2.242780 -14.178884 22.529203 23.688564 5.167932 8.787277 -16.110129 -3.702745 0.042910 1.206069 -0.014041 0.228621 -8.550420 8.257023 6.919291 8.560387 1.516448 -0.225098 21.349907 -11.385062 0.246486 2.950475 0.765875
